<svg width="32" height="32" viewBox="0 0 32 32" xmlns="http://www.w3.org/2000/svg">
  <defs>
    <linearGradient id="faviconLampGradient" x1="0%" y1="0%" x2="100%" y2="100%">
      <stop offset="0%" style="stop-color:#3B82F6;stop-opacity:1" />
      <stop offset="50%" style="stop-color:#8B5CF6;stop-opacity:1" />
      <stop offset="100%" style="stop-color:#EC4899;stop-opacity:1" />
    </linearGradient>
    
    <linearGradient id="faviconCircuitGradient" x1="0%" y1="0%" x2="100%" y2="0%">
      <stop offset="0%" style="stop-color:#10B981;stop-opacity:1" />
      <stop offset="100%" style="stop-color:#F59E0B;stop-opacity:1" />
    </linearGradient>
    
    <linearGradient id="faviconMagicGradient" x1="0%" y1="0%" x2="100%" y2="0%">
      <stop offset="0%" style="stop-color:#F59E0B;stop-opacity:1" />
      <stop offset="100%" style="stop-color:#EF4444;stop-opacity:1" />
    </linearGradient>
  </defs>
  
  <!-- Background circle -->
  <circle cx="16" cy="16" r="14" fill="url(#faviconLampGradient)" opacity="0.1"/>
  
  <!-- Circuit Genie Lamp -->
  <g transform="translate(16, 16)">
    <!-- Lamp body -->
    <ellipse cx="0" cy="4" rx="4" ry="6" fill="url(#faviconLampGradient)" opacity="0.8"/>
    
    <!-- Circuit lines -->
    <g stroke="url(#faviconCircuitGradient)" stroke-width="0.8" fill="none" opacity="0.7">
      <line x1="-3" y1="1" x2="3" y2="-2"/>
      <line x1="-3" y1="3" x2="3" y2="3"/>
      <line x1="-3" y1="5" x2="3" y2="5"/>
    </g>
    
    <!-- Circuit nodes -->
    <circle cx="-2" cy="1" r="0.6" fill="url(#faviconCircuitGradient)"/>
    <circle cx="2" cy="3" r="0.6" fill="url(#faviconCircuitGradient)"/>
    <circle cx="-2" cy="5" r="0.6" fill="url(#faviconCircuitGradient)"/>
    
    <!-- Lamp spout -->
    <path d="M-3,0 Q0,-8 3,0" stroke="url(#faviconLampGradient)" stroke-width="1.5" fill="none"/>
    
    <!-- Lamp handle -->
    <path d="M-4,2 Q-6,0 -4,-2" stroke="url(#faviconLampGradient)" stroke-width="1.2" fill="none"/>
    
    <!-- Magic smoke -->
    <path d="M0,-8 Q-2,-12 -4,-15" stroke="url(#faviconCircuitGradient)" stroke-width="1" fill="none" opacity="0.8"/>
    <path d="M0,-8 Q2,-12 4,-15" stroke="url(#faviconMagicGradient)" stroke-width="1" fill="none" opacity="0.8"/>
    
    <!-- Data points -->
    <circle cx="-2" cy="-10" r="0.7" fill="url(#faviconCircuitGradient)" opacity="0.8"/>
    <circle cx="2" cy="-13" r="0.7" fill="url(#faviconMagicGradient)" opacity="0.8"/>
  </g>
  
  <!-- Sparkles -->
  <path d="M22,6 L23,7 L22,8 L21,7 Z" fill="url(#faviconMagicGradient)" opacity="0.7"/>
  <path d="M6,22 L7,23 L6,24 L5,23 Z" fill="url(#faviconCircuitGradient)" opacity="0.7"/>
</svg>