<svg width="40" height="40" viewBox="0 0 40 40" xmlns="http://www.w3.org/2000/svg">
  <defs>
    <linearGradient id="iconLampGradient" x1="0%" y1="0%" x2="100%" y2="100%">
      <stop offset="0%" style="stop-color:#3B82F6;stop-opacity:1" />
      <stop offset="50%" style="stop-color:#8B5CF6;stop-opacity:1" />
      <stop offset="100%" style="stop-color:#EC4899;stop-opacity:1" />
    </linearGradient>
    
    <linearGradient id="iconCircuitGradient" x1="0%" y1="0%" x2="100%" y2="0%">
      <stop offset="0%" style="stop-color:#10B981;stop-opacity:1" />
      <stop offset="100%" style="stop-color:#F59E0B;stop-opacity:1" />
    </linearGradient>
    
    <linearGradient id="iconMagicGradient" x1="0%" y1="0%" x2="100%" y2="0%">
      <stop offset="0%" style="stop-color:#F59E0B;stop-opacity:1" />
      <stop offset="100%" style="stop-color:#EF4444;stop-opacity:1" />
    </linearGradient>
  </defs>
  
  <!-- Circuit Genie Lamp -->
  <g transform="translate(20, 20)">
    <!-- Lamp body -->
    <ellipse cx="0" cy="5" rx="5" ry="8" fill="url(#iconLampGradient)" opacity="0.8"/>
    
    <!-- Circuit lines on lamp -->
    <g stroke="url(#iconCircuitGradient)" stroke-width="0.8" fill="none" opacity="0.7">
      <line x1="-3" y1="1" x2="3" y2="1"/>
      <line x1="-3" y1="4" x2="3" y2="4"/>
      <line x1="-3" y1="7" x2="3" y2="7"/>
      <line x1="-3" y1="10" x2="3" y2="10"/>
    </g>
    
    <!-- Circuit nodes -->
    <circle cx="-2" cy="1" r="0.7" fill="url(#iconCircuitGradient)"/>
    <circle cx="2" cy="4" r="0.7" fill="url(#iconCircuitGradient)"/>
    <circle cx="-2" cy="7" r="0.7" fill="url(#iconCircuitGradient)"/>
    <circle cx="2" cy="10" r="0.7" fill="url(#iconCircuitGradient)"/>
    
    <!-- Lamp spout -->
    <path d="M-4,-2 Q-1,-10 4,-2" stroke="url(#iconLampGradient)" stroke-width="2" fill="none"/>
    
    <!-- Lamp handle -->
    <path d="M-5,3 Q-8,0 -5,-3" stroke="url(#iconLampGradient)" stroke-width="1.5" fill="none"/>
    
    <!-- Magic data smoke -->
    <path d="M0,-10 Q-3,-15 -5,-18 Q-1,-20 1,-22 Q0,-24 3,-26" 
          stroke="url(#iconCircuitGradient)" stroke-width="1.5" fill="none" opacity="0.8"/>
    <path d="M0,-10 Q3,-15 5,-18 Q1,-20 -1,-22 Q0,-20 -3,-26" 
          stroke="url(#iconMagicGradient)" stroke-width="1.5" fill="none" opacity="0.8"/>
    
    <!-- Floating circuit elements -->
    <g transform="translate(-8, -12)">
      <rect x="0" y="0" width="3" height="1.5" fill="none" stroke="url(#iconCircuitGradient)" stroke-width="0.8"/>
      <rect x="5" y="0" width="3" height="1.5" fill="none" stroke="url(#iconMagicGradient)" stroke-width="0.8"/>
      <circle cx="1.5" cy="0.8" r="0.4" fill="url(#iconCircuitGradient)"/>
      <circle cx="6.5" cy="0.8" r="0.4" fill="url(#iconMagicGradient)"/>
    </g>
    
    <g transform="translate(6, -10)">
      <rect x="0" y="0" width="2" height="2" fill="none" stroke="url(#iconCircuitGradient)" stroke-width="0.8"/>
      <rect x="4" y="0" width="2" height="2" fill="none" stroke="url(#iconMagicGradient)" stroke-width="0.8"/>
      <line x1="1" y1="1" x2="5" y2="1" stroke="url(#iconCircuitGradient)" stroke-width="0.6"/>
    </g>
    
    <!-- Data points in smoke -->
    <circle cx="-3" cy="-15" r="1" fill="url(#iconCircuitGradient)" opacity="0.8"/>
    <circle cx="3" cy="-18" r="1" fill="url(#iconMagicGradient)" opacity="0.9"/>
    <circle cx="-1" cy="-22" r="0.8" fill="url(#iconCircuitGradient)" opacity="0.7"/>
    <circle cx="1" cy="-26" r="0.8" fill="url(#iconMagicGradient)" opacity="0.7"/>
    
    <!-- Sparkle effects -->
    <path d="M-9,-5 L-8,-4 L-9,-3 L-10,-4 Z" fill="url(#iconCircuitGradient)" opacity="0.8"/>
    <path d="M9,-5 L10,-4 L9,-3 L8,-4 Z" fill="url(#iconMagicGradient)" opacity="0.8"/>
    <path d="M-8,8 L-7,9 L-8,10 L-9,9 Z" fill="url(#iconMagicGradient)" opacity="0.8"/>
    <path d="M8,8 L9,9 L8,10 L7,9 Z" fill="url(#iconCircuitGradient)" opacity="0.8"/>
  </g>
</svg>